# xmcd
#
# Track frame offsets: 
#        150
#        21192
#        48143
#        70552
#        114865
#        136073
#        149736
#        171420
#        214900
#        254405
#
# Disc length: 3696 seconds
#
# Revision: 0
# Processed by: cddbd v1.5.2PL0 Copyright (c) Steve Scherf et al.
# Submitted via: ExactAudioCopy v0.95b4
#
DISCID=8e0e6e0a
DTITLE=Fleetwood Mac - Carousel Ballroom SF-CA-1968
DYEAR=1900
DGENRE=Blues
TTITLE0=Madison Blues
TTITLE1=Something Inside Of Me
TTITLE2=The Woman I Love
TTITLE3=Worried Dreams
TTITLE4=Dust My Broom
TTITLE5=Got To Move
TTITLE6=Trying So Hard To Forget
TTITLE7=Fleetwood Mac
TTITLE8=Have You Ever Loved A Woman
TTITLE9=Lazy Poker Blues
EXTD=
EXTT0=
EXTT1=
EXTT2=
EXTT3=
EXTT4=
EXTT5=
EXTT6=
EXTT7=
EXTT8=
EXTT9=
PLAYORDER=
